<?xml version="1.0" encoding="UTF-8" standalone="no"?>
<svg
   xmlns:dc="http://purl.org/dc/elements/1.1/"
   xmlns:cc="http://creativecommons.org/ns#"
   xmlns:rdf="http://www.w3.org/1999/02/22-rdf-syntax-ns#"
   xmlns:svg="http://www.w3.org/2000/svg"
   xmlns="http://www.w3.org/2000/svg"
   xmlns:xlink="http://www.w3.org/1999/xlink"
   xmlns:sodipodi="http://sodipodi.sourceforge.net/DTD/sodipodi-0.dtd"
   xmlns:inkscape="http://www.inkscape.org/namespaces/inkscape"
   aria-hidden="true"
   focusable="false"
   data-prefix="fas"
   data-icon="search-dollar"
   class="svg-inline--fa fa-search-dollar fa-w-16"
   role="img"
   viewBox="0 0 512 512"
   version="1.1"
   id="svg3773"
   sodipodi:docname="app-icon.svg"
   inkscape:version="0.92.5 (2060ec1f9f, 2020-04-08)">
  <metadata
     id="metadata3779">
    <rdf:RDF>
      <cc:Work
         rdf:about="">
        <dc:format>image/svg+xml</dc:format>
        <dc:type
           rdf:resource="http://purl.org/dc/dcmitype/StillImage" />
        <dc:title></dc:title>
      </cc:Work>
    </rdf:RDF>
  </metadata>
  <defs
     id="defs3777">
    <linearGradient
       inkscape:collect="always"
       id="linearGradient4615">
      <stop
         style="stop-color:#f1f1f1;stop-opacity:1"
         offset="0"
         id="stop4611" />
      <stop
         style="stop-color:#c0c0c0;stop-opacity:1"
         offset="1"
         id="stop4613" />
    </linearGradient>
    <radialGradient
       inkscape:collect="always"
       xlink:href="#linearGradient4615"
       id="radialGradient4617"
       cx="256"
       cy="256"
       fx="256"
       fy="256"
       r="256.5"
       gradientUnits="userSpaceOnUse"
       gradientTransform="matrix(1.4948026,0,0,1.2674776,-126.66948,-68.474257)" />
  </defs>
  <sodipodi:namedview
     pagecolor="#ffffff"
     bordercolor="#666666"
     borderopacity="1"
     objecttolerance="10"
     gridtolerance="10"
     guidetolerance="10"
     inkscape:pageopacity="0"
     inkscape:pageshadow="2"
     inkscape:window-width="1920"
     inkscape:window-height="1015"
     id="namedview3775"
     showgrid="false"
     inkscape:zoom="0.098999024"
     inkscape:cx="-2556.5191"
     inkscape:cy="58.462133"
     inkscape:window-x="0"
     inkscape:window-y="0"
     inkscape:window-maximized="1"
     inkscape:current-layer="svg3773"
     inkscape:snap-page="true"
     inkscape:snap-grids="false" />
  <circle
     id="path3804"
     cx="256"
     cy="256"
     r="244.19562"
     style="fill:url(#radialGradient4617);fill-opacity:1;stroke:#000000;stroke-width:23.60875511;stroke-linecap:butt;stroke-miterlimit:4;stroke-dasharray:none;stroke-opacity:1;paint-order:normal" />
  <path
     d="m 406.77614,369.00907 -60.36717,-60.35506 c -2.72442,-2.72441 -6.41753,-4.23798 -10.29226,-4.23798 h -9.86847 c 16.7098,-21.37159 26.63881,-48.24651 26.63881,-77.48865 0,-69.55755 -56.37135,-125.91679 -125.93495,-125.91679 -69.56361,0 -125.941,56.35924 -125.941,125.91679 0,69.55755 56.37134,125.91678 125.941,125.91678 29.24214,0 56.12917,-9.92901 77.50075,-26.6388 v 9.86846 c 0,3.87474 1.51357,7.56784 4.238,10.29227 l 60.36716,60.35505 c 5.69102,5.69102 14.89351,5.69102 20.52399,0 l 17.13359,-17.13359 c 5.69102,-5.69102 5.69102,-14.88746 0.0605,-20.57848 z M 226.9521,314.09681 c -48.1557,0 -87.18154,-38.9532 -87.18154,-87.16943 0,-48.14964 38.95925,-87.16943 87.18154,-87.16943 48.15569,0 87.18154,38.95319 87.18154,87.16943 0,48.14963 -38.95925,87.16943 -87.18154,87.16943 z m 16.41314,-92.35189 -27.25029,-8.17327 c -3.12401,-0.93841 -5.3096,-4.1048 -5.3096,-7.70709 0,-4.40146 3.20876,-7.98559 7.14404,-7.98559 h 17.01857 c 2.76074,0 5.42463,0.781 7.76158,2.25219 1.96158,1.22902 4.45594,1.15637 6.13297,-0.44196 l 7.11378,-6.78684 c 2.13716,-2.04029 2.01607,-5.57599 -0.3451,-7.34989 -5.50939,-4.13507 -12.15698,-6.52045 -18.99225,-6.8716 v -9.86241 c 0,-2.67599 -2.16744,-4.84342 -4.84343,-4.84342 h -9.68683 c -2.67599,0 -4.84342,2.16743 -4.84342,4.84342 v 9.75949 c -14.30625,0.38141 -25.83964,12.44153 -25.83964,27.28661 0,12.09039 7.8645,22.8912 19.11939,26.26949 l 27.25029,8.17327 c 3.12401,0.93842 5.3096,4.1048 5.3096,7.70709 0,4.40146 -3.20876,7.98559 -7.14404,7.98559 h -17.01251 c -2.76075,0 -5.42463,-0.781 -7.76158,-2.25219 -1.96158,-1.22902 -4.45595,-1.15636 -6.13298,0.44196 l -7.11378,6.78684 c -2.13715,2.04029 -2.01606,5.57599 0.3451,7.34989 5.50939,4.13507 12.15699,6.52045 18.99226,6.8716 v 9.86241 c 0,2.67599 2.16743,4.84343 4.84342,4.84343 h 9.68684 c 2.67598,0 4.84342,-2.16744 4.84342,-4.84343 v -9.75949 c 14.30624,-0.38142 25.83964,-12.43547 25.83964,-27.28661 0,-12.09038 -7.8645,-22.89121 -19.12545,-26.26949 z"
     id="path3771"
     inkscape:connector-curvature="0"
     style="fill:currentColor;stroke-width:0.60542738" />
</svg>
